
<svg xmlns="http://www.w3.org/2000/svg" width="40" height="40" viewBox="0 0 40 40" fill="none">
  <path d="M20 5C11.7157 5 5 11.7157 5 20C5 28.2843 11.7157 35 20 35C28.2843 35 35 28.2843 35 20C35 11.7157 28.2843 5 20 5Z" stroke="#2C9A4F" stroke-width="2" />
  <path d="M20 5C16.5 5 12.5 7 10 10" stroke="#1A3B6D" stroke-width="2" stroke-linecap="round" />
  <path d="M10 30C12.5 33 16.5 35 20 35" stroke="#1A3B6D" stroke-width="2" stroke-linecap="round" />
  <path d="M30 10C27.5 7 23.5 5 20 5" stroke="#1A3B6D" stroke-width="2" stroke-linecap="round" />
  <path d="M20 35C23.5 35 27.5 33 30 30" stroke="#1A3B6D" stroke-width="2" stroke-linecap="round" />
  <path d="M20 11L14 16.5L15 24L20 29L25 24L26 16.5L20 11Z" stroke="#F0B429" stroke-width="2" fill="none" />
  <path d="M20 11V29" stroke="#F0B429" stroke-width="2" />
</svg>
